<?xml version="1.0" standalone="no"?><!DOCTYPE svg PUBLIC "-//W3C//DTD SVG 1.1//EN" "http://www.w3.org/Graphics/SVG/1.1/DTD/svg11.dtd"><svg xmlns:xlink="http://www.w3.org/1999/xlink" version="1.1" style="font-family:'lucida grande', 'lucida sans unicode', arial, helvetica, sans-serif;font-size:12px;" xmlns="http://www.w3.org/2000/svg" width="600" height="400"><desc>Created with Highcharts 4.2.7</desc><defs><linearGradient x1="0" y1="0" x2="0" y2="1" id="highcharts-211"><stop offset="0" stop-color="rgb(96,96,96)" stop-opacity="0.8"></stop><stop offset="1" stop-color="rgb(16,16,16)" stop-opacity="0.8"></stop></linearGradient><clipPath id="highcharts-212"><rect x="1" y="1" width="578" height="332"></rect></clipPath></defs><rect x="10" y="10" width="580" height="334" fill="#ffffff"></rect><rect x="10" y="10" width="580" height="334" stroke="#ffffff" stroke-width="2" fill="none"></rect><g class="highcharts-series-group"><g class="highcharts-series highcharts-series-0" transform="translate(10,10) scale(1 1)"><path fill="#204983" d="M 289.97077289526976 37.500002976389055 A 143.5 143.5 0 0 1 344.3972412226062 48.20997722957651 L 290 181 A 0 0 0 0 0 290 181 Z" stroke="#FFFFFF" stroke-width="1" stroke-linejoin="round" transform="translate(0,0)"></path><path fill="#ED561B" d="M 344.5300040246266 48.26444085673873 A 143.5 143.5 0 0 1 433.1072762620116 191.6093110458828 L 290 181 A 0 0 0 0 0 290 181 Z" stroke="#FFFFFF" stroke-width="1" stroke-linejoin="round" transform="translate(0,0)"></path><path fill="#4ed329" d="M 433.0965953991018 191.75241299363853 A 143.5 143.5 0 1 1 289.80068137888674 37.50013842484975 L 290 181 A 0 0 0 1 0 290 181 Z" stroke="#FFFFFF" stroke-width="1" stroke-linejoin="round" transform="translate(0,0)"></path></g><g class="highcharts-markers highcharts-series-0" transform="translate(10,10) scale(1 1)"></g></g><g class="highcharts-data-labels highcharts-series-0" transform="translate(10,10) scale(1 1)" opacity="1"><path fill="none" d="M 328.58083270682414 10.280795223581531 C 323.58083270682414 10.280795223581531 322.0324369624173 18.129519363128203 319.90339281385786 28.92151505500488 L 317.7743486652984 39.71351074688155" stroke="#204983" stroke-width="1"></path><path fill="none" d="M 442.6475425913791 89.3822017017152 C 437.6475425913791 89.3822017017152 430.83958673702153 93.58359874140555 421.4786474372799 99.36051967097981 L 412.1177081375383 105.13744060055407" stroke="#ED561B" stroke-width="1"></path><path fill="none" d="M 157.78019743038587 298.47191120833975 C 162.78019743038587 298.47191120833975 168.64624020016635 293.0322841785604 176.7120490086145 285.5527970126138 L 184.77785781706268 278.07330984666714" stroke="#4ed329" stroke-width="1"></path><g style="cursor:pointer;" transform="translate(334,0)"><text x="5" style="font-size:10px;font-weight:bold;font-family:'arial', sans-serif;color:#000;text-shadow:none;fill:#000;text-rendering:geometricprecision;" y="15"><tspan>6.2%</tspan></text></g><g style="cursor:pointer;" transform="translate(448,79)"><text x="5" style="font-size:10px;font-weight:bold;font-family:'arial', sans-serif;color:#000;text-shadow:none;fill:#000;text-rendering:geometricprecision;" y="15"><tspan>20.0%</tspan></text></g><g style="cursor:pointer;" transform="translate(113,288)"><text x="5" style="font-size:10px;font-weight:bold;font-family:'arial', sans-serif;color:#000;text-shadow:none;fill:#000;text-rendering:geometricprecision;" y="15"><tspan>73.8%</tspan></text></g></g><g class="highcharts-legend" transform="translate(203,356)"><g><g><g class="highcharts-legend-item" transform="translate(8,3)"><text x="21" style="color:#333;font-size:9pt;font-weight:normal;cursor:pointer;font-family:'lucida grande','lucida sans unicode',arial,helvetica,sans-serif;text-transform:none;fill:#333;" text-anchor="start" y="15">Maybe</text><rect x="0" y="4" width="16" height="12" fill="#204983"></rect></g><g class="highcharts-legend-item" transform="translate(86.47500228881836,3)"><text x="21" y="15" style="color:#333;font-size:9pt;font-weight:normal;cursor:pointer;font-family:'lucida grande','lucida sans unicode',arial,helvetica,sans-serif;text-transform:none;fill:#333;" text-anchor="start">No</text><rect x="0" y="4" width="16" height="12" fill="#ED561B"></rect></g><g class="highcharts-legend-item" transform="translate(143.71250343322754,3)"><text x="21" y="15" style="color:#333;font-size:9pt;font-weight:normal;cursor:pointer;font-family:'lucida grande','lucida sans unicode',arial,helvetica,sans-serif;text-transform:none;fill:#333;" text-anchor="start">Yes</text><rect x="0" y="4" width="16" height="12" fill="#4ed329"></rect></g></g></g></g><g class="highcharts-tooltip" display="none" style="cursor:default;padding:0;pointer-events:none;white-space:nowrap;" transform="translate(0,0)"><path fill="none" d="M 3 0 L 13 0 C 16 0 16 0 16 3 L 16 13 C 16 16 16 16 13 16 L 3 16 C 0 16 0 16 0 13 L 0 3 C 0 0 0 0 3 0"  stroke="black" stroke-opacity="0.049999999999999996" stroke-width="5" transform="translate(1, 1)"></path><path fill="none" d="M 3 0 L 13 0 C 16 0 16 0 16 3 L 16 13 C 16 16 16 16 13 16 L 3 16 C 0 16 0 16 0 13 L 0 3 C 0 0 0 0 3 0"  stroke="black" stroke-opacity="0.09999999999999999" stroke-width="3" transform="translate(1, 1)"></path><path fill="none" d="M 3 0 L 13 0 C 16 0 16 0 16 3 L 16 13 C 16 16 16 16 13 16 L 3 16 C 0 16 0 16 0 13 L 0 3 C 0 0 0 0 3 0"  stroke="black" stroke-opacity="0.15" stroke-width="1" transform="translate(1, 1)"></path><path fill="url(#highcharts-211)" d="M 3 0 L 13 0 C 16 0 16 0 16 3 L 16 13 C 16 16 16 16 13 16 L 3 16 C 0 16 0 16 0 13 L 0 3 C 0 0 0 0 3 0"></path><text x="8" style="font-size:12px;color:#000000;fill:#000000;" y="20"></text></g><text x="590" text-anchor="end" style="cursor:pointer;color:#666;font-size:9px;fill:#666;" y="395">meta-chart.com</text></svg>